Bahiana.ufo
<glyph name="quotedbl" format="1">
  <advance width="309"/>
  <unicode hex="0022"/>
  <outline>
    <contour>
      <point x="127" y="710" type="line"/>
      <point x="50" y="710" type="line"/>
      <point x="69" y="492" type="line"/>
      <point x="120" y="502" type="line"/>
    </contour>
    <contour>
      <point x="259" y="710" type="line"/>
      <point x="182" y="710" type="line"/>
      <point x="201" y="492" type="line"/>
      <point x="252" y="502" type="line"/>
    </contour>
  </outline>
</glyph>
<glyph name="zero" format="1">
  <advance width="339"/>
  <unicode hex="0030"/>
  <outline>
    <contour>
      <point x="101" y="0" type="line"/>
      <point x="48" y="44" type="line"/>
      <point x="51" y="676" type="line"/>
      <point x="105" y="709" type="line"/>
      <point x="236" y="710" type="line"/>
      <point x="290" y="676" type="line"/>
      <point x="291" y="41" type="line"/>
      <point x="252" y="0" type="line"/>
    </contour>
    <contour>
      <point x="122" y="79" type="line" smooth="yes"/>
      <point x="122" y="70"/>
      <point x="126" y="66"/>
      <point x="135" y="66" type="curve" smooth="yes"/>
      <point x="205" y="68" type="line" smooth="yes"/>
      <point x="216" y="68"/>
      <point x="220" y="72"/>
      <point x="220" y="78" type="curve" smooth="yes"/>
      <point x="220" y="633" type="line" smooth="yes"/>
      <point x="220" y="640"/>
      <point x="213" y="647"/>
      <point x="203" y="647" type="curve" smooth="yes"/>
      <point x="141" y="647" type="line" smooth="yes"/>
      <point x="131" y="647"/>
      <point x="122" y="643"/>
      <point x="122" y="632" type="curve" smooth="yes"/>
    </contour>
    <contour>
      <point x="144" y="321" type="line"/>
      <point x="199" y="321" type="line"/>
      <point x="205" y="412" type="line"/>
      <point x="135" y="398" type="line"/>
    </contour>
  </outline>
</glyph>
<glyph name="one" format="1">
  <advance width="339"/>
  <unicode hex="0031"/>
  <outline>
    <contour>
      <point x="53" y="669" type="line"/>
      <point x="68" y="638" type="line"/>
      <point x="148" y="638" type="line"/>
      <point x="141" y="67" type="line"/>
      <point x="37" y="67" type="line"/>
      <point x="37" y="0" type="line"/>
      <point x="318" y="0" type="line"/>
      <point x="318" y="67" type="line"/>
      <point x="223" y="67" type="line"/>
      <point x="223" y="711" type="line"/>
      <point x="53" y="711" type="line"/>
    </contour>
  </outline>
</glyph>
<glyph name="equal" format="1">
  <advance width="339"/>
  <unicode hex="003D"/>
  <outline>
    <contour>
      <point x="315" y="389" type="line"/>
      <point x="318" y="448" type="line"/>
      <point x="20" y="448" type="line"/>
      <point x="20" y="379" type="line"/>
    </contour>
    <contour>
      <point x="314" y="222" type="line"/>
      <point x="318" y="290" type="line"/>
      <point x="23" y="281" type="line"/>
      <point x="20" y="222" type="line"/>
    </contour>
  </outline>
</glyph>
<glyph name="L" format="1">
  <advance width="245"/>
  <unicode hex="004C"/>
  <outline>
    <contour>
      <point x="40" y="0" type="line"/>
      <point x="229" y="0" type="line"/>
      <point x="229" y="64" type="line"/>
      <point x="116" y="82" type="line"/>
      <point x="137" y="710" type="line"/>
      <point x="40" y="710" type="line"/>
    </contour>
    <contour>
      <point x="131" y="710" type="move" name="top"/>
    </contour>
    <contour>
      <point x="124" y="0" type="move" name="bottom"/>
    </contour>
  </outline>
</glyph>
<glyph name="U" format="1">
  <advance width="290"/>
  <unicode hex="0055"/>
  <outline>
    <contour>
      <point x="250" y="40" type="curve"/>
      <point x="250" y="710" type="line"/>
      <point x="166" y="710" type="line"/>
      <point x="187" y="63" type="line"/>
      <point x="100" y="69" type="line"/>
      <point x="100" y="687" type="line"/>
      <point x="40" y="687" type="line"/>
      <point x="40" y="0" type="line"/>
      <point x="207" y="0" type="line" smooth="yes"/>
      <point x="226" y="0"/>
      <point x="250" y="21"/>
    </contour>
    <contour>
      <point x="143" y="710" type="move" name="top"/>
    </contour>
    <contour>
      <point x="136" y="0" type="move" name="bottom"/>
    </contour>
  </outline>
</glyph>
<glyph name="g" format="1">
  <advance width="282"/>
  <unicode hex="0067"/>
  <outline>
    <contour>
      <point x="17" y="-84" type="line"/>
      <point x="71" y="-129" type="line"/>
      <point x="227" y="-129" type="line" smooth="yes"/>
      <point x="260" y="-129"/>
      <point x="272" y="-96"/>
      <point x="271" y="-58" type="curve" smooth="yes"/>
      <point x="267" y="36" type="line"/>
      <point x="234" y="82" type="line"/>
      <point x="116" y="82" type="line"/>
      <point x="116" y="148" type="line"/>
      <point x="204" y="150" type="line"/>
      <point x="244" y="198" type="line"/>
      <point x="240" y="561" type="line"/>
      <point x="250" y="635" type="line"/>
      <point x="209" y="635" type="line"/>
      <point x="186" y="582" type="line"/>
      <point x="97" y="582" type="line" smooth="yes"/>
      <point x="69" y="582"/>
      <point x="40" y="565"/>
      <point x="41" y="536" type="curve" smooth="yes"/>
      <point x="45" y="174" type="line"/>
      <point x="67" y="149" type="line"/>
      <point x="67" y="82" type="line"/>
      <point x="67" y="82"/>
      <point x="22" y="80"/>
      <point x="21" y="40" type="curve" smooth="yes"/>
    </contour>
    <contour>
      <point x="83" y="25" type="line" smooth="yes"/>
      <point x="83" y="30"/>
      <point x="87" y="32"/>
      <point x="91" y="32" type="curve" smooth="yes"/>
      <point x="192" y="27" type="line" smooth="yes"/>
      <point x="198" y="27"/>
      <point x="201" y="22"/>
      <point x="201" y="18" type="curve" smooth="yes"/>
      <point x="206" y="-63" type="line" smooth="yes"/>
      <point x="206" y="-68"/>
      <point x="204" y="-72"/>
      <point x="198" y="-72" type="curve" smooth="yes"/>
      <point x="81" y="-71" type="line"/>
    </contour>
    <contour>
      <point x="104" y="514" type="line" smooth="yes"/>
      <point x="104" y="518"/>
      <point x="107" y="520"/>
      <point x="109" y="520" type="curve" smooth="yes"/>
      <point x="173" y="528" type="line" smooth="yes"/>
      <point x="178" y="529"/>
      <point x="180" y="527"/>
      <point x="180" y="523" type="curve" smooth="yes"/>
      <point x="179" y="202" type="line"/>
      <point x="111" y="204" type="line" smooth="yes"/>
      <point x="107" y="204"/>
      <point x="104" y="207"/>
      <point x="104" y="211" type="curve" smooth="yes"/>
    </contour>
    <contour>
      <point x="141" y="582" type="move" name="top"/>
    </contour>
    <contour>
      <point x="151" y="0" type="move" name="bottom"/>
    </contour>
  </outline>
</glyph>
<glyph name="j" format="1">
  <advance width="167"/>
  <unicode hex="006A"/>
  <outline>
    <contour>
      <point x="-20" y="-141" type="line"/>
      <point x="34" y="-178" type="line"/>
      <point x="94" y="-81" type="line"/>
      <point x="114" y="17" type="line"/>
      <point x="126" y="582" type="line"/>
      <point x="47" y="582" type="line"/>
      <point x="50" y="-17" type="line"/>
    </contour>
    <contour>
      <point x="127" y="707" type="line"/>
      <point x="112" y="721" type="line"/>
      <point x="45" y="711" type="line"/>
      <point x="44" y="661" type="line"/>
      <point x="63" y="646" type="line"/>
      <point x="126" y="646" type="line"/>
    </contour>
  </outline>
</glyph>
<glyph name="o" format="1">
  <advance width="298"/>
  <unicode hex="006F"/>
  <outline>
    <contour>
      <point x="213" y="582" type="line"/>
      <point x="88" y="582" type="line"/>
      <point x="45" y="550" type="line"/>
      <point x="45" y="42" type="line"/>
      <point x="104" y="0" type="line"/>
      <point x="190" y="0" type="line"/>
      <point x="253" y="36" type="line"/>
      <point x="253" y="554" type="line"/>
    </contour>
    <contour>
      <point x="192" y="521" type="curve"/>
      <point x="182" y="69" type="line" smooth="yes"/>
      <point x="182" y="65"/>
      <point x="182" y="63"/>
      <point x="173" y="63" type="curve" smooth="yes"/>
      <point x="121" y="63" type="line" smooth="yes"/>
      <point x="112" y="63"/>
      <point x="112" y="65"/>
      <point x="112" y="69" type="curve" smooth="yes"/>
      <point x="112" y="521" type="line" smooth="yes"/>
      <point x="112" y="527"/>
      <point x="116" y="530"/>
      <point x="121" y="530" type="curve" smooth="yes"/>
      <point x="183" y="530" type="line" smooth="yes"/>
      <point x="192" y="530"/>
      <point x="192" y="527"/>
    </contour>
    <contour>
      <point x="155" y="582" type="move" name="top"/>
    </contour>
    <contour>
      <point x="126" y="0" type="move" name="bottom"/>
    </contour>
  </outline>
</glyph>
<glyph name="logicalnot" format="1">
  <advance width="339"/>
  <unicode hex="00AC"/>
  <outline>
    <contour>
      <point x="13" y="366" type="line"/>
      <point x="10" y="308" type="line"/>
      <point x="278" y="315" type="line"/>
      <point x="252" y="190" type="line"/>
      <point x="312" y="175" type="line"/>
      <point x="328" y="317" type="line"/>
      <point x="328" y="366" type="line"/>
    </contour>
  </outline>
</glyph>
<glyph name="uni00B3" format="1">
  <advance width="234"/>
  <unicode hex="00B3"/>
  <outline>
    <contour>
      <point x="172" y="568" type="curve"/>
      <point x="185" y="581" type="line"/>
      <point x="189" y="595" type="line"/>
      <point x="189" y="710" type="line"/>
      <point x="73" y="710" type="line"/>
      <point x="45" y="684" type="line"/>
      <point x="45" y="657" type="line"/>
      <point x="144" y="661" type="line"/>
      <point x="142" y="604" type="line"/>
      <point x="57" y="558" type="line"/>
      <point x="77" y="533" type="line"/>
      <point x="135" y="536" type="line"/>
      <point x="143" y="395" type="line"/>
      <point x="95" y="400" type="line"/>
      <point x="90" y="461" type="line"/>
      <point x="50" y="461" type="line"/>
      <point x="50" y="345" type="line"/>
      <point x="160" y="345" type="line"/>
      <point x="187" y="375" type="line"/>
      <point x="187" y="545" type="line"/>
      <point x="183" y="550"/>
      <point x="177" y="561"/>
    </contour>
  </outline>
</glyph>
<glyph name="Eth" format="1">
  <advance width="295"/>
  <unicode hex="00D0"/>
  <outline>
    <contour>
      <point x="157" y="338" type="line"/>
      <point x="157" y="387" type="line"/>
      <point x="-5" y="396" type="line"/>
      <point x="-2" y="338" type="line"/>
    </contour>
    <component base="D"/>
  </outline>
</glyph>
<glyph name="OE" format="1">
  <advance width="444"/>
  <unicode hex="0152"/>
  <outline>
    <contour>
      <point x="407" y="710" type="line"/>
      <point x="83" y="710" type="line"/>
      <point x="40" y="678" type="line"/>
      <point x="40" y="42" type="line"/>
      <point x="99" y="0" type="line"/>
      <point x="195" y="0" type="line"/>
      <point x="255" y="34" type="line"/>
      <point x="258" y="0" type="line"/>
      <point x="416" y="10" type="line"/>
      <point x="404" y="91" type="line"/>
      <point x="269" y="73" type="line"/>
      <point x="269" y="363" type="line"/>
      <point x="373" y="381" type="line"/>
      <point x="373" y="431" type="line"/>
      <point x="264" y="431" type="line"/>
      <point x="264" y="632" type="line"/>
      <point x="407" y="632" type="line"/>
    </contour>
    <contour>
      <point x="191" y="649" type="curve"/>
      <point x="181" y="76" type="line" smooth="yes"/>
      <point x="181" y="72"/>
      <point x="178" y="70"/>
      <point x="172" y="70" type="curve" smooth="yes"/>
      <point x="130" y="70" type="line" smooth="yes"/>
      <point x="124" y="70"/>
      <point x="121" y="72"/>
      <point x="121" y="76" type="curve" smooth="yes"/>
      <point x="121" y="649" type="line" smooth="yes"/>
      <point x="121" y="655"/>
      <point x="124" y="658"/>
      <point x="130" y="658" type="curve" smooth="yes"/>
      <point x="182" y="658" type="line" smooth="yes"/>
      <point x="188" y="658"/>
      <point x="191" y="655"/>
    </contour>
  </outline>
</glyph>
<glyph name="uni0304" format="1">
  <advance width="0"/>
  <unicode hex="0304"/>
  <outline>
    <contour>
      <point x="298" y="812" type="line"/>
      <point x="298" y="867" type="line"/>
      <point x="30" y="867" type="line"/>
      <point x="33" y="803" type="line"/>
    </contour>
    <contour>
      <point x="164" y="900" type="move" name="top"/>
    </contour>
    <contour>
      <point x="164" y="710" type="move" name="_top"/>
    </contour>
  </outline>
</glyph>
<glyph name="uni0308" format="1">
  <advance width="0"/>
  <unicode hex="0308"/>
  <outline>
    <contour>
      <point x="118" y="878" type="line"/>
      <point x="35" y="875" type="line"/>
      <point x="35" y="795" type="line"/>
      <point x="114" y="795" type="line"/>
    </contour>
    <contour>
      <point x="254" y="878" type="line"/>
      <point x="175" y="878" type="line"/>
      <point x="178" y="795" type="line"/>
      <point x="254" y="798" type="line"/>
    </contour>
    <contour>
      <point x="147" y="900" type="move" name="top"/>
    </contour>
    <contour>
      <point x="147" y="710" type="move" name="_top"/>
    </contour>
  </outline>
</glyph>
<glyph name="uni0394" format="1">
  <advance width="330"/>
  <unicode hex="0394"/>
  <outline>
    <contour>
      <point x="15" y="10" type="line"/>
      <point x="315" y="0" type="line"/>
      <point x="214" y="710" type="line"/>
      <point x="144" y="700" type="line"/>
    </contour>
    <contour>
      <point x="178" y="662" type="line"/>
      <point x="238" y="74" type="line"/>
      <point x="92" y="64" type="line"/>
      <point x="165" y="664" type="line"/>
    </contour>
  </outline>
</glyph>
<glyph name="uni03BC" format="1">
  <advance width="304"/>
  <unicode hex="03BC"/>
  <outline>
    <contour>
      <point x="111" y="73" type="line"/>
      <point x="132" y="710" type="line"/>
      <point x="58" y="690" type="line"/>
      <point x="35" y="-9" type="line"/>
      <point x="43" y="-236" type="line"/>
      <point x="132" y="-222" type="line"/>
      <point x="89" y="-9" type="line"/>
      <point x="265" y="-9" type="line"/>
      <point x="265" y="683" type="line"/>
      <point x="195" y="687" type="line"/>
      <point x="195" y="79" type="line"/>
    </contour>
  </outline>
</glyph>
<glyph name="dagger" format="1">
  <advance width="317"/>
  <unicode hex="2020"/>
  <outline>
    <contour>
      <point x="134" y="762" type="line"/>
      <point x="134" y="487" type="line"/>
      <point x="0" y="491" type="line"/>
      <point x="3" y="433" type="line"/>
      <point x="134" y="433" type="line"/>
      <point x="134" y="-126" type="line"/>
      <point x="184" y="-129" type="line"/>
      <point x="193" y="433" type="line"/>
      <point x="318" y="433" type="line"/>
      <point x="318" y="482" type="line"/>
      <point x="194" y="485" type="line"/>
      <point x="198" y="762" type="line"/>
    </contour>
  </outline>
</glyph>
<glyph name="perthousand" format="1">
  <advance width="653"/>
  <unicode hex="2030"/>
  <outline>
    <contour>
      <point x="166" y="421" type="line"/>
      <point x="166" y="710" type="line"/>
      <point x="27" y="710" type="line"/>
      <point x="27" y="395" type="line"/>
      <point x="141" y="395" type="line"/>
    </contour>
    <contour>
      <point x="24" y="33" type="line"/>
      <point x="63" y="-2" type="line"/>
      <point x="419" y="679" type="line"/>
      <point x="385" y="707" type="line"/>
    </contour>
    <contour>
      <point x="117" y="440" type="curve"/>
      <point x="86" y="440" type="line" smooth="yes"/>
      <point x="82" y="440"/>
      <point x="80" y="441"/>
      <point x="80" y="444" type="curve" smooth="yes"/>
      <point x="70" y="670" type="line" smooth="yes"/>
      <point x="70" y="672"/>
      <point x="73" y="673"/>
      <point x="78" y="673" type="curve"/>
      <point x="108" y="658" type="line" smooth="yes"/>
      <point x="112" y="656"/>
      <point x="114" y="654"/>
      <point x="114" y="652" type="curve" smooth="yes"/>
      <point x="124" y="446" type="line" smooth="yes"/>
      <point x="124" y="442"/>
      <point x="122" y="440"/>
    </contour>
    <contour>
      <point x="277" y="315" type="line"/>
      <point x="277" y="0" type="line"/>
      <point x="416" y="0" type="line"/>
      <point x="416" y="289" type="line"/>
      <point x="391" y="315" type="line"/>
    </contour>
    <contour>
      <point x="609" y="25" type="line"/>
      <point x="609" y="314" type="line"/>
      <point x="470" y="314" type="line"/>
      <point x="470" y="-1" type="line"/>
      <point x="584" y="-1" type="line"/>
    </contour>
    <contour>
      <point x="560" y="44" type="curve"/>
      <point x="529" y="44" type="line" smooth="yes"/>
      <point x="525" y="44"/>
      <point x="523" y="45"/>
      <point x="523" y="48" type="curve" smooth="yes"/>
      <point x="513" y="274" type="line" smooth="yes"/>
      <point x="513" y="276"/>
      <point x="516" y="277"/>
      <point x="521" y="277" type="curve"/>
      <point x="551" y="262" type="line" smooth="yes"/>
      <point x="555" y="260"/>
      <point x="557" y="258"/>
      <point x="557" y="256" type="curve" smooth="yes"/>
      <point x="567" y="50" type="line" smooth="yes"/>
      <point x="567" y="46"/>
      <point x="565" y="44"/>
    </contour>
    <contour>
      <point x="336" y="270" type="curve"/>
      <point x="367" y="270" type="line" smooth="yes"/>
      <point x="372" y="270"/>
      <point x="374" y="268"/>
      <point x="374" y="264" type="curve" smooth="yes"/>
      <point x="364" y="58" type="line" smooth="yes"/>
      <point x="364" y="56"/>
      <point x="362" y="54"/>
      <point x="358" y="52" type="curve" smooth="yes"/>
      <point x="328" y="37" type="line"/>
      <point x="323" y="37"/>
      <point x="320" y="38"/>
      <point x="320" y="40" type="curve" smooth="yes"/>
      <point x="330" y="266" type="line" smooth="yes"/>
      <point x="330" y="269"/>
      <point x="332" y="270"/>
    </contour>
  </outline>
</glyph>
<glyph name="uni2196" format="1">
  <advance width="490"/>
  <unicode hex="2196"/>
  <note>
    uni2196
  </note>
  <outline>
    <contour>
      <point x="55" y="280" type="line"/>
      <point x="63" y="548" type="line"/>
      <point x="94" y="579" type="line"/>
      <point x="346" y="587" type="line"/>
      <point x="346" y="538" type="line"/>
      <point x="174" y="509" type="line"/>
      <point x="429" y="234" type="line"/>
      <point x="392" y="197" type="line"/>
      <point x="121" y="471" type="line"/>
      <point x="125" y="287" type="line"/>
      <point x="110" y="272" type="line"/>
    </contour>
  </outline>
</glyph>
<glyph name="summation" format="1">
  <advance width="316"/>
  <unicode hex="2211"/>
  <outline>
    <contour>
      <point x="23" y="0" type="line"/>
      <point x="271" y="10" type="line"/>
      <point x="259" y="101" type="line"/>
      <point x="104" y="83" type="line"/>
      <point x="241" y="388" type="line"/>
      <point x="119" y="632" type="line"/>
      <point x="282" y="652" type="line"/>
      <point x="282" y="710" type="line"/>
      <point x="79" y="710" type="line"/>
      <point x="24" y="642" type="line"/>
      <point x="153" y="365" type="line"/>
      <point x="12" y="31" type="line"/>
    </contour>
  </outline>
</glyph>
<glyph name="triagdn" format="1">
  <advance width="683"/>
  <unicode hex="25BC"/>
  <note>
    triagdn
  </note>
  <outline>
    <contour>
      <point x="636" y="615" type="line"/>
      <point x="45" y="601" type="line"/>
      <point x="30" y="574" type="line"/>
      <point x="339" y="103" type="line"/>
      <point x="385" y="127" type="line"/>
      <point x="653" y="587" type="line"/>
    </contour>
  </outline>
</glyph>
<glyph name="uni25C6" format="1">
  <advance width="680"/>
  <unicode hex="25C6"/>
  <note>
    uni25C6
  </note>
  <outline>
    <contour>
      <point x="45" y="327" type="line"/>
      <point x="332" y="34" type="line"/>
      <point x="373" y="46" type="line"/>
      <point x="626" y="328" type="line"/>
      <point x="635" y="371" type="line"/>
      <point x="349" y="667" type="line"/>
      <point x="308" y="654" type="line"/>
      <point x="52" y="368" type="line"/>
    </contour>
  </outline>
</glyph>
<glyph name="lozenge" format="1">
  <advance width="330"/>
  <unicode hex="25CA"/>
  <outline>
    <contour>
      <point x="106" y="0" type="line"/>
      <point x="186" y="10" type="line"/>
      <point x="325" y="340" type="line"/>
      <point x="224" y="710" type="line"/>
      <point x="144" y="700" type="line"/>
      <point x="5" y="350" type="line"/>
    </contour>
    <contour>
      <point x="165" y="56" type="line"/>
      <point x="157" y="58" type="line"/>
      <point x="83" y="379" type="line"/>
      <point x="165" y="634" type="line"/>
      <point x="169" y="632" type="line"/>
      <point x="243" y="318" type="line"/>
    </contour>
  </outline>
</glyph>
<glyph name="circle" format="1">
  <advance width="700"/>
  <unicode hex="25CB"/>
  <note>
    circle
  </note>
  <outline>
    <contour>
      <point x="583" y="187" type="line"/>
      <point x="632" y="270"/>
      <point x="627" y="399"/>
      <point x="612" y="458" type="curve" smooth="yes"/>
      <point x="587" y="557"/>
      <point x="400" y="650"/>
      <point x="285" y="641" type="curve"/>
      <point x="164" y="566"/>
      <point x="74" y="438"/>
      <point x="79" y="264" type="curve"/>
      <point x="107" y="133"/>
      <point x="267" y="30"/>
      <point x="440" y="69" type="curve"/>
    </contour>
    <contour>
      <point x="288" y="97"/>
      <point x="172" y="161"/>
      <point x="137" y="253" type="curve"/>
      <point x="133" y="390"/>
      <point x="204" y="524"/>
      <point x="299" y="584" type="curve"/>
      <point x="389" y="591"/>
      <point x="520" y="515"/>
      <point x="556" y="443" type="curve" smooth="yes"/>
      <point x="579" y="397"/>
      <point x="569" y="264"/>
      <point x="531" y="199" type="curve"/>
      <point x="408" y="121" type="line"/>
    </contour>
  </outline>
</glyph>
<glyph name="uni270C" format="1">
  <advance width="549"/>
  <unicode hex="270C"/>
  <note>
    Black_Hand_Left
  </note>
  <outline>
    <contour>
      <point x="296" y="97"/>
      <point x="387" y="201"/>
      <point x="478" y="201" type="curve" smooth="yes"/>
      <point x="486" y="201"/>
      <point x="496" y="198"/>
      <point x="506" y="196" type="curve"/>
      <point x="517" y="252" type="line"/>
      <point x="485" y="285" type="line"/>
      <point x="435" y="280"/>
      <point x="383" y="260"/>
      <point x="339" y="219" type="curve"/>
      <point x="335" y="223"/>
      <point x="313" y="236"/>
      <point x="313" y="238" type="curve" smooth="yes"/>
      <point x="313" y="257"/>
      <point x="348" y="387"/>
      <point x="380" y="471" type="curve"/>
      <point x="406" y="582" type="line"/>
      <point x="365" y="601" type="line"/>
      <point x="348" y="555"/>
      <point x="331" y="514"/>
      <point x="315" y="473" type="curve"/>
      <point x="301" y="423"/>
      <point x="283" y="394"/>
      <point x="273" y="331" type="curve"/>
      <point x="268" y="333"/>
      <point x="268" y="334"/>
      <point x="262" y="334" type="curve"/>
      <point x="263" y="420"/>
      <point x="274" y="517"/>
      <point x="290" y="598" type="curve"/>
      <point x="286" y="703" type="line"/>
      <point x="280" y="704"/>
      <point x="268" y="704"/>
      <point x="261" y="704" type="curve" smooth="yes"/>
      <point x="246" y="704"/>
      <point x="235" y="703"/>
      <point x="225" y="701" type="curve"/>
      <point x="207" y="349" type="line"/>
      <point x="198" y="351" type="line"/>
      <point x="190" y="424"/>
      <point x="189" y="454"/>
      <point x="200" y="544" type="curve"/>
      <point x="183" y="650" type="line"/>
      <point x="180" y="651"/>
      <point x="174" y="651"/>
      <point x="171" y="651" type="curve" smooth="yes"/>
      <point x="161" y="651"/>
      <point x="148" y="648"/>
      <point x="141" y="644" type="curve"/>
      <point x="134" y="535" type="line"/>
      <point x="151" y="353" type="line"/>
      <point x="145" y="351" type="line"/>
      <point x="105" y="482" type="line"/>
      <point x="75" y="539" type="line"/>
      <point x="67" y="537"/>
      <point x="42" y="527"/>
      <point x="38" y="518" type="curve"/>
      <point x="58" y="437"/>
      <point x="78" y="380"/>
      <point x="112" y="326" type="curve"/>
      <point x="100" y="262"/>
      <point x="93" y="186"/>
      <point x="93" y="119" type="curve"/>
      <point x="133" y="23" type="line"/>
      <point x="258" y="4" type="line"/>
    </contour>
  </outline>
</glyph>
<glyph name="A_N_D" format="1">
  <advance width="837"/>
  <outline>
    <contour>
      <point x="595" y="710" type="line"/>
      <point x="595" y="140" type="line"/>
      <point x="708" y="140" type="line"/>
      <point x="769" y="197" type="line"/>
      <point x="799" y="600" type="line"/>
      <point x="799" y="664"/>
      <point x="754" y="710"/>
      <point x="690" y="710" type="curve"/>
    </contour>
    <contour>
      <point x="714" y="219" type="line"/>
      <point x="714" y="214"/>
      <point x="711" y="210"/>
      <point x="705" y="206" type="curve"/>
      <point x="662" y="201" type="line"/>
      <point x="653" y="207" type="line"/>
      <point x="653" y="643" type="line"/>
      <point x="653" y="646"/>
      <point x="659" y="649"/>
      <point x="662" y="649" type="curve"/>
      <point x="716" y="649" type="line"/>
      <point x="724" y="649"/>
      <point x="728" y="647"/>
      <point x="728" y="643" type="curve"/>
    </contour>
    <contour>
      <point x="244" y="140" type="line"/>
      <point x="244" y="710" type="line"/>
      <point x="71" y="710" type="line"/>
      <point x="26" y="140" type="line"/>
      <point x="68" y="140" type="line"/>
      <point x="114" y="423" type="line"/>
      <point x="167" y="423" type="line"/>
      <point x="193" y="140" type="line"/>
    </contour>
    <contour>
      <point x="186" y="466" type="line"/>
      <point x="186" y="462"/>
      <point x="184" y="460"/>
      <point x="180" y="460" type="curve"/>
      <point x="137" y="460" type="line"/>
      <point x="133" y="460"/>
      <point x="131" y="462"/>
      <point x="131" y="465" type="curve"/>
      <point x="131" y="677" type="line"/>
      <point x="131" y="681"/>
      <point x="133" y="683"/>
      <point x="137" y="683" type="curve"/>
      <point x="180" y="683" type="line"/>
      <point x="184" y="683"/>
      <point x="186" y="681"/>
      <point x="186" y="677" type="curve"/>
    </contour>
    <contour>
      <point x="530" y="140" type="line"/>
      <point x="541" y="710" type="line"/>
      <point x="488" y="710" type="line"/>
      <point x="466" y="198" type="line"/>
      <point x="455" y="198" type="line"/>
      <point x="415" y="710" type="line"/>
      <point x="301" y="710" type="line"/>
      <point x="301" y="140" type="line"/>
      <point x="355" y="140" type="line"/>
      <point x="355" y="651" type="line"/>
      <point x="366" y="651" type="line"/>
      <point x="418" y="140" type="line"/>
    </contour>
    <contour>
      <point x="778" y="0" type="line"/>
      <point x="778" y="86" type="line"/>
      <point x="26" y="61" type="line"/>
      <point x="33" y="0" type="line"/>
    </contour>
  </outline>
</glyph>
<glyph name="E_U" format="1">
  <advance width="499"/>
  <outline>
    <contour>
      <point x="449" y="710" type="line"/>
      <point x="376" y="710" type="line"/>
      <point x="397" y="198" type="line"/>
      <point x="319" y="204" type="line"/>
      <point x="319" y="687" type="line"/>
      <point x="264" y="687" type="line"/>
      <point x="264" y="140" type="line"/>
      <point x="406" y="140" type="line"/>
      <point x="425" y="140"/>
      <point x="449" y="161"/>
      <point x="449" y="180" type="curve"/>
    </contour>
    <contour>
      <point x="213" y="150" type="line"/>
      <point x="201" y="234" type="line"/>
      <point x="121" y="216" type="line"/>
      <point x="121" y="413" type="line"/>
      <point x="180" y="431" type="line"/>
      <point x="180" y="476" type="line"/>
      <point x="116" y="476" type="line"/>
      <point x="116" y="647" type="line"/>
      <point x="204" y="647" type="line"/>
      <point x="204" y="710" type="line"/>
      <point x="71" y="710" type="line"/>
      <point x="48" y="150" type="line"/>
    </contour>
    <contour>
      <point x="46" y="84" type="line"/>
      <point x="46" y="0" type="line"/>
      <point x="440" y="0" type="line"/>
      <point x="448" y="69" type="line"/>
    </contour>
  </outline>
</glyph>
<glyph name="L.alt" format="1">
  <advance width="264"/>
  <outline>
    <contour>
      <point x="40" y="0" type="line"/>
      <point x="242" y="0" type="line"/>
      <point x="242" y="69" type="line"/>
      <point x="129" y="82" type="line"/>
      <point x="114" y="105" type="line"/>
      <point x="114" y="710" type="line"/>
      <point x="40" y="710" type="line"/>
    </contour>
    <contour>
      <point x="114" y="710" type="move" name="top"/>
    </contour>
    <contour>
      <point x="139" y="0" type="move" name="bottom"/>
    </contour>
  </outline>
</glyph>
<glyph name="Q.alt" format="1">
  <advance width="291"/>
  <outline>
    <contour>
      <point x="40" y="685" type="curve"/>
      <point x="40" y="0" type="line"/>
      <point x="103" y="0" type="line"/>
      <point x="182" y="-121" type="line"/>
      <point x="207" y="-134" type="line"/>
      <point x="266" y="-114" type="line"/>
      <point x="156" y="0" type="line"/>
      <point x="193" y="0" type="line" smooth="yes"/>
      <point x="233" y="0"/>
      <point x="247" y="14"/>
      <point x="247" y="37" type="curve" smooth="yes"/>
      <point x="247" y="685" type="line" smooth="yes"/>
      <point x="247" y="692"/>
      <point x="213" y="710"/>
      <point x="101" y="710" type="curve" smooth="yes"/>
      <point x="64" y="710"/>
      <point x="40" y="696"/>
    </contour>
    <contour>
      <point x="181" y="639" type="line"/>
      <point x="190" y="633" type="line"/>
      <point x="190" y="65" type="line"/>
      <point x="112" y="52" type="line"/>
      <point x="100" y="61" type="line"/>
      <point x="120" y="633" type="line" smooth="yes"/>
      <point x="120" y="636"/>
      <point x="123" y="638"/>
      <point x="129" y="639" type="curve"/>
    </contour>
  </outline>
</glyph>
<glyph name="T.alt" format="1">
  <advance width="261"/>
  <outline>
    <contour>
      <point x="245" y="633" type="line"/>
      <point x="240" y="696" type="line"/>
      <point x="33" y="710" type="line"/>
      <point x="20" y="639" type="line"/>
      <point x="92" y="615" type="line"/>
      <point x="72" y="0" type="line"/>
      <point x="157" y="0" type="line"/>
      <point x="157" y="633" type="line"/>
    </contour>
    <contour>
      <point x="134" y="710" type="move" name="top"/>
    </contour>
    <contour>
      <point x="116" y="0" type="move" name="bottom"/>
    </contour>
  </outline>
</glyph>
<glyph name="Tbar.alt" format="1">
  <advance width="275"/>
  <outline>
    <contour>
      <point x="97" y="615" type="line"/>
      <point x="93" y="492" type="line"/>
      <point x="4" y="492" type="line"/>
      <point x="7" y="428" type="line"/>
      <point x="91" y="431" type="line"/>
      <point x="77" y="0" type="line"/>
      <point x="162" y="0" type="line"/>
      <point x="162" y="433" type="line"/>
      <point x="272" y="437" type="line"/>
      <point x="272" y="492" type="line"/>
      <point x="162" y="492" type="line"/>
      <point x="162" y="633" type="line"/>
      <point x="250" y="633" type="line"/>
      <point x="245" y="696" type="line"/>
      <point x="38" y="710" type="line"/>
      <point x="25" y="639" type="line"/>
    </contour>
  </outline>
</glyph>
<glyph name="baraccent" format="1">
  <advance width="253"/>
  <outline>
    <contour>
      <point x="241" y="338" type="line"/>
      <point x="241" y="387" type="line"/>
      <point x="12" y="396" type="line"/>
      <point x="15" y="338" type="line"/>
    </contour>
    <contour>
      <point x="127" y="710" type="move" name="top"/>
    </contour>
    <contour>
      <point x="121" y="0" type="move" name="bottom"/>
    </contour>
  </outline>
</glyph>
<glyph name="baraccentlong" format="1">
  <advance width="501"/>
  <outline>
    <contour>
      <point x="489" y="338" type="line"/>
      <point x="489" y="387" type="line"/>
      <point x="12" y="396" type="line"/>
      <point x="15" y="338" type="line"/>
    </contour>
    <contour>
      <point x="256" y="710" type="move" name="top"/>
    </contour>
    <contour>
      <point x="250" y="0" type="move" name="bottom"/>
    </contour>
  </outline>
</glyph>
<glyph name="dotbelow" format="1">
  <advance width="153"/>
  <outline>
    <contour>
      <point x="30" y="-56" type="line"/>
      <point x="34" y="-154" type="line"/>
      <point x="123" y="-151" type="line"/>
      <point x="123" y="-56" type="line"/>
    </contour>
    <contour>
      <point x="75" y="0" type="move" name="_bottom"/>
    </contour>
    <contour>
      <point x="75" y="-226" type="move" name="bottom"/>
    </contour>
  </outline>
</glyph>
<glyph name="dotlessJ" format="1">
  <advance width="270"/>
  <outline>
    <contour>
      <point x="79" y="0" type="curve"/>
      <point x="215" y="0" type="line"/>
      <point x="234" y="710" type="line"/>
      <point x="197" y="710" type="line"/>
      <point x="157" y="696" type="line"/>
      <point x="157" y="89" type="line"/>
      <point x="82" y="94" type="line"/>
      <point x="77" y="172" type="line"/>
      <point x="28" y="172" type="line"/>
      <point x="36" y="38" type="line" smooth="yes"/>
      <point x="37" y="19"/>
      <point x="60" y="0"/>
    </contour>
    <contour>
      <point x="195" y="710" type="move" name="top"/>
    </contour>
    <contour>
      <point x="197" y="0" type="move" name="bottom"/>
    </contour>
  </outline>
</glyph>
<glyph name="f.alt" format="1">
  <advance width="185"/>
  <outline>
    <contour>
      <point x="3" y="522" type="line"/>
      <point x="44" y="522" type="line"/>
      <point x="52" y="-56" type="line" smooth="yes"/>
      <point x="52" y="-61"/>
      <point x="50" y="-65"/>
      <point x="46" y="-65" type="curve" smooth="yes"/>
      <point x="-57" y="-74" type="line"/>
      <point x="-57" y="-129" type="line"/>
      <point x="81" y="-129" type="line"/>
      <point x="124" y="-80" type="line"/>
      <point x="109" y="522" type="line"/>
      <point x="201" y="522" type="line"/>
      <point x="201" y="583" type="line"/>
      <point x="108" y="583" type="line"/>
      <point x="108" y="637" type="line" smooth="yes"/>
      <point x="108" y="642"/>
      <point x="110" y="646"/>
      <point x="114" y="646" type="curve" smooth="yes"/>
      <point x="223" y="655" type="line"/>
      <point x="223" y="710" type="line"/>
      <point x="85" y="710" type="line"/>
      <point x="42" y="661" type="line"/>
      <point x="43" y="583" type="line"/>
      <point x="3" y="565" type="line"/>
    </contour>
  </outline>
</glyph>
<glyph name="gcommaaccent.alt" format="1">
  <advance width="291"/>
  <outline>
    <contour>
      <point x="191" y="-153" type="line"/>
      <point x="110" y="-153" type="line"/>
      <point x="110" y="-230" type="line"/>
      <point x="152" y="-230" type="line"/>
      <point x="106" y="-299" type="line"/>
      <point x="161" y="-315" type="line"/>
      <point x="194" y="-230" type="line"/>
    </contour>
    <component base="g.alt"/>
  </outline>
</glyph>
<glyph name="s.alt" format="1">
  <advance width="248"/>
  <outline>
    <contour>
      <point x="172" y="466" type="line"/>
      <point x="202" y="466" type="line"/>
      <point x="206" y="582" type="line"/>
      <point x="78" y="582" type="line"/>
      <point x="45" y="562" type="line"/>
      <point x="45" y="288" type="line"/>
      <point x="149" y="264" type="line"/>
      <point x="136" y="58" type="line"/>
      <point x="92" y="59" type="line"/>
      <point x="72" y="139" type="line"/>
      <point x="38" y="139" type="line"/>
      <point x="45" y="0" type="line"/>
      <point x="141" y="0" type="line" smooth="yes"/>
      <point x="163" y="0"/>
      <point x="201" y="26"/>
      <point x="201" y="49" type="curve"/>
      <point x="213" y="324" type="line"/>
      <point x="101" y="345" type="line"/>
      <point x="113" y="523" type="line"/>
      <point x="156" y="529" type="line"/>
    </contour>
    <contour>
      <point x="128" y="582" type="move" name="top"/>
    </contour>
    <contour>
      <point x="126" y="0" type="move" name="bottom"/>
    </contour>
  </outline>
</glyph>
<glyph name="w.alt" format="1">
  <advance width="404"/>
  <outline>
    <contour>
      <point x="166" y="582" type="line"/>
      <point x="117" y="56" type="line"/>
      <point x="113" y="56" type="line"/>
      <point x="81" y="582" type="line"/>
      <point x="12" y="582" type="line"/>
      <point x="61" y="0" type="line"/>
      <point x="153" y="0" type="line"/>
      <point x="200" y="489" type="line"/>
      <point x="206" y="489" type="line"/>
      <point x="230" y="0" type="line"/>
      <point x="321" y="0" type="line"/>
      <point x="394" y="582" type="line"/>
      <point x="334" y="582" type="line"/>
      <point x="288" y="56" type="line"/>
      <point x="284" y="56" type="line"/>
      <point x="248" y="582" type="line"/>
    </contour>
    <contour>
      <point x="202" y="582" type="move" name="top"/>
    </contour>
    <contour>
      <point x="202" y="0" type="move" name="bottom"/>
    </contour>
  </outline>
</glyph>
